<svg xmlns="http://www.w3.org/2000/svg" xmlns:xlink="http://www.w3.org/1999/xlink" height="529.134" width="925.984" xmlns:v="https://vecta.io/nano"><style><![CDATA[.B{stroke:#000}.C{stroke-width:2.5}.D{fill-rule:evenodd}.E{stroke-opacity:.772}.F{fill:none}.G{stroke-linecap:round}.H{stroke-linejoin:round}.I{fill:#fff}.J{stroke-width:1pt}.K{fill:#008d00}.L{fill:#dc0000}.M{stroke:#286326}.N{fill:#008c00}.O{fill:#6d390b}.P{stroke-opacity:.642}.Q{fill:#9c4314}.R{stroke-width:4.625}.S{fill:#d40000}.T{fill:#973000}.U{stroke-width:2.628}.V{stroke-width:4.125}.W{stroke-width:3.75}.X{stroke-width:2.243}.Y{stroke-width:2.388}.Z{stroke-width:3.356}.a{stroke-width:3.94}.b{stroke-width:2.657}.c{stroke-width:1.357}]]></style><path d="M0 0h868.11v496.06H0z" class="D I"/><g transform="matrix(.3759 0 0 .3759 182.64 298.58)"><g class="D Q"><path d="M398.4-85.658c.19-.252 8.76-15.252 7.74-12.836 3.95 3.024 11.16.158 5.93-6.646 1.27-2.75 2.87-4.85 4.15-7.6 2.87-5.38-3.28-7.7-5.72-3.98-1.49 2.85-2.93 4.55-4.42 7.4-7.76-3.68-8.26 4.98-4.55 6.49l-6.1 8.508 2.97 8.664z"/><path d="M397.37-89.011c-.25-.189-15.37-8.544-12.94-7.563 2.97-3.986 0-11.156-6.73-5.826-2.77-1.24-4.89-2.82-7.66-4.05-5.42-2.79-7.66 3.39-3.9 5.78 2.88 1.446 4.59 2.858 7.46 4.308-3.57 7.809 5.1 8.197 6.56 4.464 2.36 1.614 11.48 6.903 13.84 8.517 2.87-1.029.5-4.601 3.37-5.63zm54.7 91.658c.05-.314.44-17.585.7-14.976 4.91.779 9.88-5.174 2.04-8.664-.19-3.025.22-5.634.03-8.661-.04-6.104-6.56-5.212-6.92-.778.05 3.218-.41 5.394-.36 8.612-8.58.457-4.9 8.316-.92 7.878l-1.31 10.384 6.74 6.205z"/><path d="M449.57.186c-.31-.045-17.59-.189-14.98-.485.71-4.922-5.31-9.808-8.69-1.921-3.03.233-5.64-.143-8.66.091-6.11.124-5.12 6.63-.68 6.935 3.21-.094 5.39.331 8.61.237.58 8.568 8.39 4.78 7.89.802l14.54 1.522c2.04-2.274-.06-4.907 1.97-7.181z"/></g><g class="B"><path d="M628.31 59.395s5.92 7.998 8.59 8.294c8.29.592 74.06 0 74.06 0 0-.099 2.36-1.382 2.36-1.481 2.18-2.765 1.98-4.345 4.15-7.11 3.46-3.456 8.39-4.542 11.85-7.998 14.81-3.555 28.14-7.109 42.96-9.479-1.19-8.788-10.08-6.912-14.82-10.368-1.48-1.383-1.18-2.765-.29-4.148l32.88-15.107V8.443c-23.31 2.765-44.83 7.306-69.91 8.294l-85.61 35.252-6.22 7.406z" fill="#42b2f3" class="C D"/><path d="M391.62-97.904h-.3c1.49 0 .31.099 0-3.556" class="F J"/></g><g class="D"><path d="M392.89-93.966c-4.44-15.704-11.63-29.454-28.38-33.524-3.14-.72-5.38-9.69-.14-9.27 2.96 1.18.06-.56 3.02.62 2.93 1.05 7.5-1.26 5.62-6.26 0-.59-5.6-10.52-5.6-10.81-1.04-1.14.9-7.5 5.93-4.15 2.37 1.56 4.74 5.21 8.16 5.92 1.25-.2 2.08-4.11 1.87-7.13 0-.29.3-10.23.3-10.23-1.19-6 4.11-9.05 8.37-4.57.29 1.48-.04 1.49.26 2.98.97 1.98 2.16 2.29 3.55.29l5.63-5.63c3.34-1.24 5.43-2.48 5.63 4.45 0 0-4.61 5.78-6.79 7.87-1.14 1.68-3.6 3.96.68 5.21.29 0 6.11.84 6.11.84 3.98 1.66 4.4 6.03 1.47 6.43 0 0-3.11 3.62-8.55 6.64-1.68 1.35-3.06 2.96-1.59 4.81 3.14 1.22 2.14.05 7.5.05 4.52-1.04 4.1 10.03-4.07 9.28-2.44.58-5.67.34-6.99 4.25-.6 3.04-.74 8.88-.74 10.36-.51 7.06.53 16.835.53 17.131.59 5.036-1.19 3.258-1.78 4.443zm48.49 90.334c-.58-.737-15.42-17.004-32.57-15.176-3.2.388-8.33-7.306-3.26-8.68 3.19.116.71-.34 3.89-.224 2.7-1.891-2.17-7.708-4.38-5.688-.19-.557-5.87 1.216-8.28.727-7.45-.714-10.71-9.04-5.26-12.197 3.38 1.293 9.78 1.413 13.24.935 3.42-1.041 1.84-4.154-1.48-4.619-4.71-.698-23.73-5.333-22.05-7.64-3.15-5.238-.03-9.277 5.49-6.494 4.56 2.762 5.09 1.211 3.98-.85-1.35-3.916-2.65-2.977-2.85-6.376-.33-2.19.38-4.17 3.61-2.793 1.36-1.148 3.61 7.053 12.08 3.944 1.56 1.309 2.9-8.873 8.77-7.324 4.41 1.363 1.4 5.944 2.26 12.411.7 4.26 4.96 3.282 5.55 1.07-.93-9.787 8.64-9.958 9.73-6.652.91 2.417 1.73 9.001.57 15.19-.63 3.146-.13 9.39 1.88 10.635 3.37.089 1.19-.675 3.51-4.162 3.9-2.512 9.97 6.585 2.87 11.153-7.49 1.615 4.24 30.162 5.23 31.755-1.08 1.168-2.37-.26-2.53 1.055z" stroke="#286726" class="K R"/><g class="Q"><path d="M533.4 72.726c0-.318-2.32-17.436-1.65-14.9 4.97 0 8.95-6.658.66-8.877-.66-2.958-.66-5.6-1.33-8.559-.99-6.023-7.29-4.121-6.96.316.56 3.171.44 5.391 1 8.562-8.4 1.795-3.54 8.981.33 7.924l.33 10.461 7.62 5.073z"/><path d="M533.1 70.707c-.32.004-17.4 2.568-14.87 1.868-.07-4.972-6.79-8.855-8.89-.536-2.95.704-5.59.742-8.54 1.447-6.01 1.078-4.02 7.35.42 6.956 3.16-.597 5.38-.519 8.54-1.116 1.92 8.372 9.03 3.408 7.92-.444l14.6-.775c1.66-2.565-.83-4.835.82-7.4z"/></g><g class="B"><path d="M527.27-22.91c41.81 24.682 52.56 21.098 50.81 10.163 2.01 0 2.44 1.745 8.38-2.629-.83 16.17 16.78 25.466 27.51 23.515 9.69.625 8.44 13.435 8.44 13.435.59 13.107-3.82 18.404-3.23 31.512-.15 0-.3-1.562-.45-1.562-11.91-2.834-35.39-3.168-44.18-5.065 40.3-27.494-31-28.247-37.37-29.184-4.82-.625-1.38-5.311 1.43-6.561 22.18-4.374-20.85-25.381-19.73-27.88-2.63-1.562.18-2.812.18-2.812 2.95-1.915 5.27-1.017 8.21-2.932z" stroke-width="2.625" fill="#33b1e9"/><path d="M631.68-1.998a13.09 13.09 0 0 0-13.12 13.122c-2.19 9.998-1.88 24.057 0 37.491 0 7.269 5.85 13.122 13.12 13.122 28.95 3.124 60.09 2.187 86.85 0a13.1 13.1 0 0 0 13.13-13.122c3.43-11.872 2.49-24.369 0-37.491a13.1 13.1 0 0 0-13.13-13.122c-28.95-1.25-58.53-2.812-86.85 0z" fill="#983d25" class="W"/></g><g class="C"><path d="M533.89-358.88l-19.82 17.16c-8.14 3.6-16.99 8.08-10.62 27.25-3.71 24.6 16.11 28.49 33.45 23.36 2.88-6.37 3.8-10.77 6.69-17.14-7.67-1.18-11.77 1.51-18.73 1.03-4.78-.76-5.13-4.36-3.36-6.72l21.76-10.97c-.17-1.12-.35-.29-.53-1.41-6.19 3.18-10.61 4.24-17.16 6.9-5.19 1.83-6.66-4.84-4.6-7.79l13.45-19.46c1.12-4.06.34-10.89-.53-12.21z" stroke="#000003" fill="#268728" class="H"/><g class="B I"><path d="M589.29-21.7c.091-3.768-1.868-7.289-5.117-9.2s-7.278-1.911-10.527 0-5.207 5.432-5.117 9.2c-.091 3.768 1.868 7.289 5.117 9.2s7.278 1.911 10.527 0 5.207-5.432 5.117-9.2h-10.38z"/><use xlink:href="#B"/></g></g><use xlink:href="#B" x="243.25" y="21.95" stroke-width="2.475" class="B I"/><path d="M534.83-345.8l.4 15.54c-.25-5.51-2.18-9.92-2.9-12.08.86-1.42 2.25-3.46 2.5-3.46z" fill="#ba4600" class="B H J"/><g fill="#973100" stroke-width="3.6" class="B"><use xlink:href="#B" x="90.78" y="33.82"/><use xlink:href="#B" x="194.01" y="33.82"/><use xlink:href="#B" x="194.01" y="-13.65"/><use xlink:href="#B" x="91.37" y="-13.65"/></g><path d="M534.86 78.038c-.58-.737-4.97-13.199-29.82-13.741-3.5-.205-5.72.8-12.8.31-4.1.337-2.49-4.552-.86-6.311 2.69-1.891-9.6-.969-13.83-.468-4.26-.245-7.13-.971-9.54-1.46-7.45-.714-11.81-5.947-6.37-9.104 2.29-2.242 11.56.308 15.02-.17 3.42-1.041 2.94-6.805-.38-7.27-4.71-.698-25.28-2.24-23.6-4.547-3.14-5.238-2.23-7.951 5.94-6.936 4.55 2.762 4.42-.777 3.31-2.838-1.35-3.916-8.83-4.523-9.03-7.922-1.22-8.155 4.13-9.252 7.36-7.875 1.37-1.148-6.11-7.527 2.36-10.636 2.1-.66 6.43-.146 7.89 7.588 4.41 1.363 1.36-5.075 7.34-7.692 5.12-2.147-.34 22.944 5.77 22.72 5.26 2.142 4.22-13.714 8.63-10.629 9.52-2.443 4.91 30.433 9.06 28.448 6.88 6.018 7.6-5.412 9.61-4.167 3.36.089 5.61.209 3.73 7.768-1.4 5.883.69 7.247 1.76 9.606 6.44 14.183 16.1 14.051 19.32 20.578 1.04 9.651-.71 3.433-.87 4.748z" stroke="#286726" class="K R"/><g class="B"><g class="C"><path d="M653.86 99.854c-11.88 9.766-24.22 16.086-28.74 26.246 5.41-.73 7.5-1.64 11.54-1.13 4.38-9.79 18.14-15.01 26.26-22.93l-9.06-2.186zm31.78 1.046c10.75 9.92 24.06 15.59 28.75 26.08-5.42-.73-7.68-1.47-10.91-.64-4.37-9.78-18.78-15.5-26.9-23.42 3.02-.72 6.04-1.29 9.06-2.02z" fill="#009400"/><path d="M677.52 102.92c13.02 7.82 18.21 13.44 26.23 23.44-3.85.23-9.26 1.97-11.23 3.12-9.69-12.6-17.19-17.08-25.31-24.99 3.02-.73 7.29-.84 10.31-1.57z" class="I"/><path d="M554.63-320.04c-5.21 1.43-7.47 5.83-7.94 9.93-19.21 13.45-5.25 39.95 12.57 34.44-13.18-19.74 0-30.89 14.66-23.97 4.44 3.26 7.54 10.06 7.96 9.64 2.79-6.05 13.83-11.32 13.83-11.32s8.89 1.2 10.49-4.55c1.01-3.68 9.2-18.91 9.2-18.91l-28.49-5.86-19.69-.42-10.48 4.61c-1.39 2.23-.71 4.17-2.11 6.41z" fill="#ffba00" class="E"/><path d="M666.9 103.55c13.02 7.81 18.99 15.12 27 25.12-3.52 1.04-4.72 6.85-6.69 8-6.25-12.61-16.59-23.34-27.52-34.07 3.02-.73 4.19 1.68 7.21.95z" class="S"/><path d="M661.98 102.04c-13.02 7.81-17.56 12.78-25.58 22.78 3.86.24 8.61 2.63 10.59 3.78 9.68-12.6 17.18-17.08 25.3-25-3.02-.73-7.29-.83-10.31-1.56z" class="I"/><path d="M672.6 102.67c-13.01 7.81-18.49 15.6-26.51 25.6 6.45 4.62 4.88 4.91 6.21 7.51 6.25-12.6 19.99-23.01 30.93-33.74-3.02-.73-7.61 1.36-10.63.63z" class="S"/></g><use xlink:href="#C" transform="matrix(1.0388 .33938 -.31204 1.1298 462.42 -620.98)" class="T X"/></g><path d="M651.45 86.275l-32.04 22.495c-1.93 1.65 6.5 3.37 9.59 1.86 9.91-6.8 15.12-11.256 25.03-18.057l5.66-3.163c-4.04-.29-4.2-2.845-8.24-3.135z" stroke="#005e00" fill="#008d2b" class="C"/><g class="B"><use xlink:href="#C" transform="matrix(.88202 -.34627 .41478 .9278 208.12 -324.73)" stroke-width="2.549" class="T"/><path d="M747.16-17.632c.49-25.749 23.06-3.205 31.93-13.813 20.83-24.55 22.61-26.419 41.02-23.756 49.32 19.382-2.16 64.204-52.57 43.794-5.54-3.043-14.85-3.182-20.38-6.225z" class="K U"/></g><g class="O"><use xlink:href="#D"/><path d="M931.515-103.793l12 10.411-3.161 3.643-12-10.411zM858.7-65.687l2.62 3.671 9.05-7.888-2.62-3.67-9.05 7.887z"/></g></g><g class="B"><path d="M631.68-2.311c15.31 4.687 26.56 60.299 41.55 65.297M646.36-2.623c15.31 4.687 26.25 60.299 41.24 65.297M660.73-3.248c15.31 4.687 26.56 60.611 41.56 65.609" class="F G W"/><g class="D"><use xlink:href="#C" transform="matrix(.88202 -.34627 .41478 .9278 431.82 -363.47)" class="T X"/><path d="M865.9-52.92c.77 2.969-.56 6.82-5.79 8.169-5.22 1.35-10.13-.685-10.89-3.655-.77-2.97 2.26-7.239 7.48-8.589s8.43 1.105 9.2 4.075z" class="L Y"/></g></g><path d="M636 89.428c-7.74 1.571-25.4 5.397-33.1 20.832-1.39 2.9-13.01 5.15-11.43.14 1.81-2.62 2.46-2.85 4.28-5.48-.15-3.28-7.67-2.31-7.15.63-.58-.13-4.22.57-5.93 2.34-4.62 5.89-12.5 5.63-12.22-.66 2.91-2.15 4.39-4.22 5.85-7.395.96-3.442-5.77-4.675-7.95-2.133-4.61 2.408-7.5 5.868-12.99 8.538-6.1 2.2-11.97-1.72-6.65-4.87 4.78-2.345.79-7.775-1.54-7.951-4.03-.973-20.52 1.811-23.49.148-2.33-.305-6.57-6.415-1.6-7.506 4.51-1.471 12.03 1.65 13.98-7.159 1.94-14.834 25.48 7.588 21.66 1.397-8.62-12.753 6.06-15.748 10.49-7.064 1.8 3.921 10.77 9.734 13.37 8.642 4.88.54-9.07-12.352 2.01-14.455 2.52.537 7.03.729 10.14 5.038 2.31 2.226 2.8 11.389 11.45 12.148 1.89-2.79.07-1.369-1.62-5.201-.01-4.641 7.67-4.262 10.95 3.592 3.25 5.997 20.4 1.924 36.09 2.285 5.03-.822 13.12 3.598-14.6 4.144z" stroke="#286026" class="D K R"/><g class="B D"><g class="L"><path d="M848.53-53.47c2.76 4.241 2.7 10.962-4.76 15.819s-16.2 4.251-18.96.01-.27-12.509 7.19-17.366 13.77-2.705 16.53 1.537z" class="C"/><g class="Y"><path d="M853.87-71.056c2.58 1.649 4.23 5.373 1.33 9.921s-7.88 6.403-10.46 4.753c-2.59-1.65-3.28-6.836-.38-11.385s6.92-4.939 9.51-3.289z"/><path d="M861.73-63.343c1.67 2.57 1.64 6.644-2.88 9.587-4.53 2.944-9.82 2.577-11.49.006-1.68-2.571-.17-7.581 4.35-10.525s8.35-1.639 10.02.932z"/></g></g><path d="M878.55-78.571c1.26 1.933 1.23 4.999-2.17 7.213s-7.38 1.939-8.64.004-.13-5.704 3.27-7.919c3.41-2.214 6.28-1.233 7.54.702z" stroke-width="1.796" fill="#d90000"/><path d="M663.58 77.588c-6.65.78-10.44 1.191-11.72 6.006-.71 3.27-.14 7.542.42 11.212 0 4.214 5.32 7.004 11.52 8.204h10.65c4.49 0 12.79-4.39 12.79-8.604.66-2.382.64-6.227.64-8.831 0-7.087-5-7.524-11.26-8.187l-13.04.2z" class="C I"/></g><g class="M V D"><path d="M900.18-6.121c-.73-24.596-7.21-60.238 22.98-72.462 3.9-1.016 5.3 1.179 3.98 4.419L900.18-6.121z" fill="#008f00"/><path d="M939.2-56.203c5.37-10.11 18.65-12.656 23.34-12.343-9.27 9.477-18.54 32.701-23.74 40.303-7.5 12.914-29.37 22.078-42.49 29.681l42.89-57.641z" class="N"/></g><path d="M664.15 77.465l-6.81 1.185c-.15 0-5.19 3.258-5.19 3.258l-1.03 6.517c0 .148 1.18 7.258 1.18 7.258l3.11 4.295 8.15 2.812.59-25.325z" fill="#009400" class="B D J"/><path d="M896.21 1.391c.88-.884 17.28-78.198 44.63-87.355 4.41 5.744 2.28 18.229.52 24.857-8.4 28.867-28.8 48.653-45.15 62.498z" class="D K M V"/><g class="O D"><g transform="matrix(-.80432 -.59419 -.59419 .80432 1685.2 -40.01)"><use xlink:href="#D" x="-315.19" y="492.21"/><path d="M616.325 388.417l12 10.411-3.161 3.643-12-10.411z"/></g><g transform="matrix(1.0037 .37206 -.3609 1.0348 410.2 -647.81)"><use xlink:href="#E" transform="matrix(.874 .2484 -.1647 .72013 140.99 -45.21)"/><use xlink:href="#F" transform="matrix(.75535 .65532 -.65532 .75535 0 0)"/></g><g transform="matrix(-.83426 .67078 -.70314 -.8406 1699.1 -80.203)"><use xlink:href="#E" transform="matrix(.874 .2484 -.1647 .72013 140.99 -45.21)"/><use xlink:href="#F" transform="matrix(.75535 .65532 -.65532 .75535 0 0)"/></g></g><g class="M N D"><path d="M884.32 24.431c16.8-9.104 6.27 3.669 5.23 10.662-4.97 17.257-9.61 17.367-15.44 20.308-8.71 7.941-36.6 4.089-49.57 7.362 16.25-11.798 43.53-26.535 59.78-38.332zm-25.15-4.002c7.01-5.567 8.16-17.859 7.7-22.118-6.36 9.081-22.63 19.059-27.85 24.309-8.93 7.687-14.41 28.252-19.22 40.728l39.37-42.919z" class="Z"/><path d="M771.81 91.038c10.99-3.224 29.71 4.895 32.77 8.465-13.26-.003-34.74 9.207-43.82 10.797-14.47 3.66-54.62-18.988-69-22.223 24-1.209 55.48 6.439 80.05 2.961z" class="V"/></g><path d="M688.17 88.703l32.04 22.497c1.93 1.64-6.51 3.37-9.6 1.86-9.9-6.8-15.11-11.26-25.02-18.059l-5.66-3.163c4.04-.29 4.2-2.845 8.24-3.135z" stroke="#004500" fill="#00602b" class="C D"/><path d="M818.41 62.778c1.13-.426 45.86-60.822 73.67-58.324 1.67 6.628-5.09 16.578-9.25 21.618-18.71 21.686-44.53 30.986-64.42 36.706z" class="D M N a"/><g class="O D"><g transform="matrix(.70997 .80116 -.80594 .74261 688.26 -730.62)"><use xlink:href="#E" transform="matrix(.874 .2484 -.1647 .72013 140.99 -45.21)"/><use xlink:href="#F" transform="matrix(.75535 .65532 -.65532 .75535 0 0)"/></g><g transform="matrix(-1.0595 .15277 -.1774 -1.0815 1548.5 405.75)"><use xlink:href="#E" transform="matrix(.874 .2484 -.1647 .72013 140.99 -45.21)"/><use xlink:href="#F" transform="matrix(.75535 .65532 -.65532 .75535 0 0)"/></g></g><path d="M445.1-140.67c1.31-1.95 4.33-3.24 8.1-1.13 3.76 2.11 5.35 5.8 4.04 7.76-1.31 1.95-5.54 2.54-9.31.44-3.76-2.11-4.14-5.11-2.83-7.07z" stroke-width="1.867" class="B D L"/><g class="M N D"><path d="m764.14 82.968c18.47-4.885 17.37-13.781 26.01-21.561-19.99-2.924-35.92 4.148-44.46 8.844-13.48 8.695-16.97 18.135-28.65 24.636 19.91-2.543 28.89-5.403 47.1-11.919z" class="Z"/><path d="M703.89 88.373c52.84 3.986 44.42-17.465 102.33-16.936-.86 6.782-11.91 15.29-17.62 18.474-25.32 13.389-66.93 19.669-84.71-1.538z" class="a"/></g><path d="M677.04 77.317l.14 24.883 6.82-2.666 2.81-4.74c0-.296 1.19-6.073 1.19-6.221s-.6-7.109-.6-7.109l-5.18-3.407-5.18-.74z" class="B D J S"/><path d="M457.063-153.737l-8.456-9.291 2.876-2.436 8.456 9.291z" class="D O"/><g class="B"><g class="L D"><path d="M446.42-148.02c1.44-2.49 4.74-4.13 8.86-1.44s5.86 7.4 4.43 9.9-6.07 3.25-10.19.56-4.53-6.52-3.1-9.02z" stroke-width="2.207"/><path d="M469.7-158.43c2.41.09 5.02 2.23 4.88 7.07-.13 4.84-2.75 8.54-5.16 8.45-2.41-.1-4.96-3.8-4.83-8.64.14-4.85 2.7-6.98 5.11-6.88z" stroke-width="2.007"/><path d="M457.85-156.5c2.73-.72 6.29.5 7.57 5.3 1.28 4.81-.56 9.33-3.29 10.04-2.73.72-6.68-2.05-7.97-6.86-1.28-4.8.96-7.76 3.69-8.48z" stroke-width="2.199"/></g><path d="M525.91-79.442c-8.23-20.948-30.72-55.718-53.62-38.958-25.41 21.922 11.59 56.414 43.15 54.459l10.47-15.501z" class="C D H K"/><g class="L D"><path d="M460.52-140.84c4.4-2.96 11.46-3.03 16.7 4.66s4.77 16.81.37 19.77-13.13.52-18.37-7.17c-5.25-7.68-3.11-14.3 1.3-17.26z" stroke-width="2.617"/><path d="M444.24-175.83c2.01-1.35 5.23-1.38 7.62 2.13s2.18 7.67.17 9.02-5.99.24-8.38-3.27-1.41-6.53.59-7.88z" stroke-width="1.88"/></g><g class="K U D"><path d="M595.88-54.518c-10.36-18.416-38.6-41.447-67.38-26.713-34.03 23.883 13.73 59.655 62.6 42.017 4.38-4.543.39-10.761 4.78-15.304z"/><path d="m691.81-43.626c-10.35-18.416-65.83-39.353-90-21.686-30.25 33.937 14.15 57.56 73.91 40.76 4.39-4.543 11.7-14.531 16.09-19.074z"/></g><g class="C F"><path d="M476.34-112.42c.3 0 6.22 7.41 6.22 7.41l-.3-10.37m4.45 17.476l6.22 6.221m15.7-10.367l.59 7.108 3.85-.296m-4.44 16.885c-1.48-.888-6.52-5.036-6.52-5.036m-8 5.629l-8.29-2.666" class="G H"/><path d="m478.41-93.461l-7.99-2.666"/><path d="m463.31-98.2h-6.82" class="G H"/></g><path d="m495.3-120.71v-8.89" class="F G H J"/><g class="C F"><path d="M483.45-72.724c-.89 0-12.44-.593-12.44-.593m33.18 8.591l-8.89 2.962m22.22-34.659c.29-.296 7.4-3.847 7.4-3.847m-27.55-6.23c0-.29-2.37-9.77-2.37-9.77" class="G H"/><path d="M663.43 77.44c-6.65.78-10.44 1.191-11.72 6.006-.71 3.27-.14 7.542.43 11.212 1.18 6.142 5.31 7.002 11.51 8.212h10.65c4.49 0 11.76-2.917 12.94-8.464.81-2.826.49-6.375.49-8.979-.59-6.495-5-7.524-11.26-8.187l-13.04.2z"/><path d="M664.16 77.449l-.21 24.711m13.2-24.711l-.21 24.711"/></g></g><g class="D"><g class="M N"><path d="m944.45-133.92c3.91-12.85-9.62-15.89-12.63-23.1-6.18 12.08-4.01 24.39-2.92 30.87 2.53 10.51 11.85 17.77 13.4 26.65 2.72-13.25 2.29-21.38 2.15-34.42z" stroke-width="2.246"/><path d="M962.35-145.85c.27-7.03 9.44-12.07 13.13-13.18-2.29 13.68 1.83 20.1.74 25.71-.82 9.15-17.59 23.14-24.71 30.91l10.84-43.44z" stroke-width="2.985"/><path d="M943.04-91.049c.44-.841-6.98-65.351 11.62-78.741 4.88 2.87 6.47 12.1 6.83 17.16 1.03 22.24 1.76 33.54-18.45 61.581z" stroke-width="3.195"/></g><g class="B L"><path d="m569.91-92.582c5.32 1.689 10.01 7.494 7.13 16.929s-7.33 15.503-14.33 13.396c-9.09-2.107-10.72-10.536-7.85-19.971 2.88-9.434 9.73-12.041 15.05-10.354z" stroke-width="2.764"/><g stroke-width="3.168"><path d="M578.91-102.22c1.69 1.18 2.7 3.675.64 6.493-2.07 2.818-5.45 3.792-7.14 2.605s-2.02-4.582.04-7.398 4.77-2.89 6.46-1.7zm-13.99-2.9c2.02-.42 4.53.53 5.18 3.96.66 3.433-.93 6.573-2.95 7.001s-4.73-1.64-5.39-5.07 1.13-5.461 3.16-5.891z"/><path d="M570.79-97.632c1.98.594 3.73 2.641 2.66 5.965s-3.98 5.313-5.96 4.719-3.36-3.712-2.29-7.037 3.61-4.242 5.59-3.647z"/></g><path d="M573.66-109.52c1.65.45 3.1 2 2.21 4.51-.89 2.52-3.32 4.02-4.97 3.57s-2.8-2.81-1.91-5.32c.89-2.52 3.01-3.21 4.67-2.76z" stroke-width="2.517"/><path d="M582.33-94.385c1.81 1.242 2.82 3.607.45 5.976s-6.12 2.935-7.92 1.693c-1.81-1.243-2.04-4.366.33-6.737s5.33-2.175 7.14-.932z" stroke-width="3.17"/><path d="M559.59-99.569c1.84-.221 4 .871 4.3 4.07s-1.38 5.94-3.22 6.161-4.09-1.906-4.39-5.105 1.47-4.905 3.31-5.126z" stroke-width="2.877"/></g></g><path d="M532.03 66.801v-.296.296z" class="B F J"/><g class="D B"><path d="M770.94-57.08c10.36 5.53 6.81 18.465-.6 21.921-.39-8.492-5.82-11.059-13.92-13.033 4.25-2.37 8.79-10.073 14.52-8.888z" class="C I"/><path d="M671.93-5.357c3.82-56.218 46.53-63.037 74.84-53.306 41.46 30.083-.58 55.077-62.64 56.698-5.53-3.043-6.66-.349-12.2-3.392z" class="K U"/><g class="I"><path d="M684.35-68.516c-13.26-.535-17.26 12.403-12.06 19.155 5.28-7.102 12.04-6.539 21.04-4.104-2.76-4.205-2.73-13.148-8.98-15.051z" class="b"/><path d="M691.27-51.693c-10.37 5.53-8.16 18.465-.75 21.921.39-8.492 5.82-11.059 13.92-13.033-4.25-2.37-7.44-10.073-13.17-8.888z" class="C"/></g><path d="M772.31-56.013c.12-4.626-3.53-8.625-7.81-9.271-5.16-.628-10.11 2.933-15.27-.837-.62-.419-12.61-10.76-16.04-15.578-3.44-1.885-10.65-5.419-10.65-5.419-4.24 5.53-7.23 11.897-13.36 15.542-3.05 1.221-4.22 2.651-9.78 2.197-5.75-2.688-12.08-4.069-15.37-1.15 2.8 5.541 2.04 12.55.86 17.882 2.07 1.185 4.35-.234 6.85.323 7.68.204 5.72 8.456 8.59 12.011 8.09 2.2 12.2-1.675 13.38-8.273 2.14-3.366 8.68-3.802 13.33-5.073 5.03-.972 11.33-2.573 15.94.016 3.82 2.025 6.37 4.47 8.3 8.59 0 0 6.07.542 12.14-.592.21-3.647-.54-10.282 8.89-10.368z" fill="#f6aa00" class="C H"/></g><g class="F B"><path d="M718.66-81.316l.29 13.331c1.58 4.838 12.35 4.344 13.63 1.184l-.3-15.107" class="C"/><g class="G"><path d="M722.21-52.877c2.33-.787 3.19-7.249 3.19-7.249m6.29 5.471l.59-5.332m9.19 5.331l-.89-5.627m-24.88 1.481c-.36.2-5.04-5.628-3.56-5.036m-5.04 13.627c.6 0-7.73-8.627-6.25-8.035m-1.45-7.962c-.21-.661-.59-3.851.89-3.259m17.68 1.276c-12.66 10.924-24.57 6.327-26.29 15.513m57.62-9.339c.44-.535 1.97-3.363.37-3.357" class="C"/><g class="H"><path d="M546.06-56.613c.16-.245 9.61-1.026 9.61-1.026l-8.76-5.543m56.74 16.011c.17-.245 9.62-1.026 9.62-1.026l-7.51-8.69m21.18 11.29c-.46-1.504 9.93.233 9.62-1.026L630-53.739m-15.49-25.004c.29 0 6.22 7.405 6.22 7.405l-.3-10.368m172.46 52.397c.23.192-.05 10.562-.05 10.562l6.8-7.379m-82.68-5.859c.2.216-1.14 9.604-1.14 9.604l10.14-5.382m-186.8-52.334l6.22 6.221m-17.55 4.14l6.22 6.221m36.21 9.907l8.77-.782m-22.69 9.444l8.77-.623m54.67-19.311l6.22 6.221m19.68-2.983l6.22 6.221m-54.46-17.553l6.22 6.221m-71.62-25.971l6.22 6.222m63.29 69.503l5.76-6.655m23.38 12.159l5.76-6.655M518.78-45.514l8.77-.782" class="C"/><path d="M535.37-51.757c-1.43.079 4.44-.378 6.06.27l-8.66-6.191" stroke-width="2.663"/><path d="M546.3-33.211l8.77-.782m95.16-7.715l8.77-.623m-23.66 12.926l8.77-.623m1.8-44.506c.3 0 6.22 7.405 6.22 7.405l-.29-10.368m79.45 29.453l-6.22 6.221m26.62.578l-6.22 6.221m-2.85 11.263l-6.22 6.221m79.39-4.603l-6.22 6.221m-32.3-10.753l-6.23 6.221m44.11-43.454l-6.22 6.22m35.65 35.835l-8.76-.835M771.03-2.335l.42-8.789m27.34-30.993l4.48-7.575m9.44 15.993l4.48-7.575m7.11 31.671c-.19.225-9.67-.074-9.67-.074l6.79 4.954m-128.74-7.512c.2.216-1.14 9.604-1.14 9.604l10.14-5.382m-87.04-21.395c1.15-.857 7.02-2.681 6.7-3.94l-6.24-2.26" class="C"/></g></g></g><path d="M878.81-88.656c4.11 3.19 11.04-33.114 9.98-44.474 0-.75-1.29-24.83 3.75-42.04 3.19-5.8 3.3-49.21-1.48-60.62 3.81-.32 8.42-1.55 8.99-6.21-17.58 6.51-21.75-37.15-38.67-62.23-16.52-25.15-37.02-39.81-58.31-55.07 1.66-4.26 4.12-8.27 7.37-12.27-26.15 13.1-66.9-34.33-127.02-30.79-13.56 1.36-19.94 2.17-23.41 10.42-11.17.95-22.62 3.49-22.65 18.24.02 3.54 3.23 9.99 10.42 10.08 9.85 2.83 17.85.62 24.51 14.34l1.77 14.19s-8.82-11.17-13.64-13.03c1.28-1.86-.76-3.14 2.95-6.01-4.51-2.61-12.59-.49-12.59-.49s-17.46-8.22-31.53-6c0-1.5-2.69-11.39-2.69-11.39-2.49 6.96-7.98 6.59-8.79 13.2l-5.04-15.33c-4.93 6.75-3.5 14.02-5.25 21.03-1.96 1.59-5.86 1.68-6.85-2.83-.5-5.51-1.17-6.06-1.14-12.63-3.57 6.21-7.84 9.24-9.28 19.96-1.5-4-2.29-7.83-3.8-11.83.19 13.94-11.84 22.31-23.23 32.1-3.2 5.93.5 6.01.75 9.01l6.01 3.01 10.77-.76c1.76 2.26.32 2.39 4.99 3.85 12.52 3.5 28.18-11.54 40.46 12.1-5.65 4.71-11.31 15.79-9.54 17.84 2.26 0-4.52 3.19 4.64.27-9.56 9.29-16.03 21.5-16.03 22.26-1.07 2.6 3.85-.36 2.82 4.38 1.34-3.55 2.27-.29 2.27-.29-21.81 23.59-.73 48.89-3.08 62.51 3.63 5.84 4.08-.11 8.61-.76 3.84 16.72 14.81 26.86 21.57 40.12-3.49-1.07-10.42-1.45-14.18.14.32 6.29 6.01 12.27 10.52 17.77l-9.51 3.01c-6.76 3.5-11.25 7.18-16.01 12.43-3.17 7.66 15.14 9.52 23.91 10.81-.79 2.75-1.91 6.21-.32 9.23 13.8 1.33 29.75-2.75 29.75-3.5 0-.76 3.46-2.69 3.46-2.69 1.86 3.72 5.94 4.81 7.76 4.28 2.61 0 6.66-10.39 4.8-18.35 5 6 9.71 15.56 14.72 21.57 1.51 1.594 3.47.424 4.72-.65 4.26 6.764 10.13 13.524 14.39 20.274 2.25 2.58 1.76 1.63 4.81 1.82 2.78-.9 5.15-1.27 6.61-6.67 0 0 .92.838 2.24 3.815 3.36 2.39 5.73-3.356 7.59-5.216 1.06-2.56 5.2.501 5.2-.999 1.5 1 2.49 5.4 3.99 6.4 2.3-.85 4.58-5.9 4.76-11.26 2.28 4.7 2.98 4.31 4.74 5.57 1.5-1.26 1.97-6.16 3.47-7.41-.32-2.59 18.03 17.7 18.78 17.7 1.82 1.32 12.19 4.5 14.32.79 5.18 3.46 19.11 5.6 21.37.04 11.48 4.9 24.98-.59 24.41-6.07 10.46 4.18 26.78 1.39 26.78.64 1.86-.22 6.9-5.12 2.12-8.83-34.79-24.284-86.56-64.484-106.48-74.154 0-7.17-5.43-33.02-11.27-40.15-1.06-3.67 1.33-8.2 4.78-7.94 13.54 12.66 18.46 11.45 25.63 13.49 7.76 6.12 10.54 15.47 18.3 23.98 3.66 1.16 7.98 4.87 6.85 1.26-4.84-12.15-10.69-23.92-25.19-39.71 7.51 3.75 19.81 13.69 28.11 20.9 5.54 9.12 7.09 16.39 12.1 27.9 3.63 2.3 7.33 10.78 6.8 3.75-.79-13.22-10.07-34.22-10.07-35.72 14.74 11.76 14.59 29.99 19.04 41.14 3.85 5.66 5.78 13.18 7.38 11.42 1.85-2.57-4.38-34.41-4.38-34.41-1-4-1.5-8.54-2.5-12.54 10.97 6.32 14.81 30.42 19.94 59.29.02 4.6 1.89 9.64 1.64 12.64 2.36 2.91 5.07 10.94 4.94 6.15 0 0 .01-46.97-3.17-57.76-.8-5.75 1.41-15.16 1.41-15.16l12.28 60.15v14.27l6 6.01 3.76-35.29-4.51-42.04v-12.02c-.09-4.23 3.8-3.42 6.36 1.38.51 10.26.47 18.4.97 28.66 1.76 11.75 2.98 20.33 3.93 35.28.47 12.25.94 41.224 3.54 40.724z" class="B C D E H Q"/><g class="F B"><path d="M684.33-20.749c-.56-1.323-.97-7.45-2.26-7.437l-3.66 5.541m115.71-31.539l-.75 6.197M739.51-8.472c-1.43.175-7.42-1.137-7.77.113l4.31 5.049" class="G C H"/><g class="J"><path d="M647.7-147.35v.65-.65.65-.65 11.33c.33 1.61.32 3.4.32 5.18.21 1.37.69 3.02 1.3 4.53.09 1.92.62 3.18 1.29 4.86.14 1.66.71 3.07 1.3 4.53.14 1.67.68 2.54.97 3.89.47 1.55 1.04 2.57 1.62 3.56.42.42.58.84.97.97"/><path d="M622.44-107.53c0-.52-.08-2.11.65-3.23 1.15-1.63 2.07-2.64 3.56-4.21 1.77-1.13 3.03-2.46 4.54-3.89 1.61-1.03 2.42-1.94 3.88-2.91.9-.92 1.94-1.37 2.92-1.95 1.11-.54 1.92-1.35 3.56-1.61.99-.5 3.03-.33 4.53-.33 1.54 0 2.08-.3 3.56-.32"/></g><path d="M857.8-220c5 3.63 10.51 11.52 12.76 25.78m-40.9-20.92c7.26 6.51 11.35 13.59 16.77 29.53" class="C G E"/></g><path d="M812.13-207.36c4.42 5.05 7.09 10.34 9.51 16.64m-39.54-33.16c5.75 6.64 15.01 16.77 19.77 27.03" fill="#00c600" class="D B C E G"/><g class="F B C E"><path d="M659.86-393.24c.42 28.84 42.65 21.81 46.2 48.91 8.08 29.58 4.71 48.69-7.11 58.08-6.71 6.91-1.57 17.66.42 23.17 10.98 27.82 27.55 32.3 34.67 56.3"/><path d="M644.07-373.55c0-.55.99-1.52 1.97-1.97 4.21-1.37 6.79-1.45 11.09-1.72 3.69 0 7.14.16 10.84.74" class="G"/><path d="M698.74-108.75l14.68 23.884m32.11-59.414l78.6 60.194m-80.69-43.684l57.43 50.424M635.36-190.31c7.57 15.02 28.94 34.96 41.77 38.14.44-9.64-.11-13.37-1.65-20.05m-15.78-26.64c7.56 15.02 14.47 31.02 34.53 40.12 2.08-14.58-2.41-34.42-13.49-54.59"/><path d="M663.24-219c6.9 4.16 13.15 6.03 17.76 6.58 2.08-14.58 3.9-30.01-7.99-50.89m-36.33 52.94c10.19 11.07 18.41 11.62 23.02 12.17 3.4-9.98 4.82-31.14.66-53.94m-50.09 50.65c10.15 13.14 33.55 38.07 46.14 47.13.44-2.09 1.09-3.06.92-9.74m126.29-181.67c10.87 12.53 52.83 54.72 61.14 74.46 14.34 32.28 40.78 38.41 47.37 34.8m-180.41 65.13c3.78 15.44 10.64 43.53 20.52 47.97 1.7-1.66 3.14-4.73 2.97-11.42"/><path d="M654.71-258.89c4.43 4.52 5.44 8.63 10.04 9.18 5.61-4.58 15.49-30.16 11.94-49.03m-45.26 39.15c2.09 10.16 4.03 18.74 11.23 18.82 11.95-10 15.48-32.37 11.93-51.25m-27.79 86.18l-5.39-11.83m121.56 107.58l36.04 32.744m-53.2-45.914l11.12 31.314M676.8-151.93c7.56 15.02 23.68 36.7 36.5 39.88.44-2.08.2-3.89.03-10.57m-56.05-32.32c7.57 15.01 29.8 39.48 42.62 46.65.44-2.08 2.31-2.48 2.14-9.16"/><path d="M712.64-112.68l16.06 26.634m-35.27-93.464c6.91 4.17 14.15 7.66 18.76 8.21.7-16.24-4.96-42.42-16.58-62.47m-82.1-30.88c-2.05 7.68-1.77 16.07 5.42 16.15 19.96-8.61 8.04-17.19 25.18-46.28m-4.27-22.69c7.56 15.02 9.78 25.23 21.56 29.09 2.36-1.07 8.23-27.61-11.67-49.16m14.35 32.59c3.89 4.52 9.58 5.6 14.19 5.32 4.51-9-5.13-34.5-17.81-47.69m115.08 21.58c9.5 13.36 51.16 60 69.02 74.9 4.01-.52 9.94 4.47 4.39-12.39"/><path d="M770.86-296.23c9.49 13.36 26.88 35.99 44.73 50.88 4.49 1.67 8.83 1.13 10.26-.03 1.53-1.48.14-12.07.53-22.84"/><path d="M759.55-279.4c10.87 11.98 25.22 25.78 42.8 41.77 4.49 1.67 8.37 1.74 8.88-.03.43-1.75 1.24-1.31.26-12.08m-67.11-8.15c10.87 11.98 20.81 20.82 30.67 23.02 4.76.57 7.26.64 7.77-1.13.43-1.76.14-10.14-.02-19.81m-53.87 13.92c10.87 11.98 10.88 16.95 20.74 19.15 4.76.58 8.29-.05 9.15-1.68 1.54-3.41 2.07-7.1 1.92-16.77"/><g class="G"><path d="M724.52-320.23c10.95 1.99 11.86-7.47 10.97-14.25-1.08-8.49-7.09-12.21-14.2-10.42m-2.84 62.18c5.16 2 11.64 1.87 14-4.04 1.91-4.5 1.19-15.52-5.92-13.74"/><path d="M726.17-300.64c9.85.61 10.77-3.89 10.42-9.57-.39-6.61-4.87-11.65-11.99-9.87"/></g><path d="M735.75-326.38c14.39-8.66 55.82 26.06 24.31 37.12m-27.36-12.52c14.39-8.66 46.06 19.67 13.94 30.7m-19.33-11.16c16.06.56 34.53 26.33 3.05 29.49"/><path d="M708.39-268.47c5.17 1.99 8.15 3.28 12.75-.69 1.82-1.67 4.22-9.32-2.57-13.56" class="G"/><path d="M573.93-299.62c5.43-7.01 18.7-11.48 23.25-2.2m120.9 34.6c9.35 3.07 24.24 29.1-.76 31.75"/><path d="m706.15-384.95c10.79 2.04 16.23 19.47 24.83 20.81 15.73 2.35-2.03-18.19-5.43-20.5" class="G"/><path d="M547.07-310.44c4.84.2 9.39-.69 12.45-6.42m35.52 56.39c2.68 5.01 9.59 3.01 15.3-.47 7.81-4.46 1.23-20.16 19.85-33.54m-25.26 100.1c10.15 13.14 29.41 32.74 41.41 43.27.44-2.08 2.38-3.14 2.22-9.83"/><path d="M645.95-152l23.08 32.07m25.06-39.8c3.77 15.43 18.79 39.88 28.67 44.32 1.7-1.67 2.84-8.29 2.68-14.98m-36.72 14.87l-1.41 14.31m35.97-85.87c3.77 15.44 9.45 53.01 18.14 59.82 1.7-1.66 5.21-32.87 5.05-39.56m-34.86-21.32c5.13.61 8.12.59 12.13.55.71-16.24-6.33-35.32-17.95-55.37"/></g><path d="M740.21-228.23l-.8 16.42" fill="#00c600" class="B C D E G"/><g class="F B C E"><path d="m682.24-235.25c5.43 2.09 9.3 2.77 13.61 2.43 4.46-21.98-6.75-22.01-20.72-37.55"/><path d="m744.66-381.4c10.78 2.04 3.94 18.18 18.61 23.19 12.31 4.1 5.38-12.87 1.97-15.18" class="G"/><path d="M728.62-345.15c7.78-5.66 35.61 2.18 45.03 10.09 2.69 2.51 6.81 12.55-5.98 21.78m-186.49-18.57c22.34-21.8 32.7-19.32 58.28-3.24 3.67.86 7.66.11 10.04-1.29 1.29-3.14.06-6.32-1.62-8.75-11.44-8.2-19.97-10.57-30.76-9.06m-3.79 103.24c-5.02 7.4-9.13 23.51-.65 41.44.34 2.07 2.51 4.13.33 5.51-4.18 2.1-6.07 5.58-8.42 9.06m138.93 58.48c.16-27.16-3.81-48.83-14.65-68.45m-32.28-37.31c3.59-.38 8.09.61 10.3-.46 1.07-3.97-1.98-8.85-3.2-12.59 2.06-.23 4.58-.23 6.18-.69.92-3.43 0-8.24 0-12.36"/></g><path d="M562.4-319.55c.87-6.04 6.26-12.73 12.31-16.19 2.91-1.62 4.85.33 6.15.97 1.62 2.59.65 7.45 0 9.39-1.62 3.24-4.86 5.83-10.68 8.1-3.03-1.3-4.75-.97-7.78-2.27z" class="B C D E I"/><g class="F B C E"><path d="M614.21-204.29c1.29.65 14.24 14.89 14.24 14.89h7.77l.65-21.69"/><path d="m635.25-246.05c-2.59 8.52-1.62 17.05 0 25.57" class="G H"/><path d="M618.38-205.84l3.03-11.83m2.51-32.92c-3.88 7.13-4.99 18.83-2.97 27.32m108.81 20.02l-7.33.15"/></g><path d="m467.29-230.77c1.03 3.17-2.43 1.47-3.18 2.36-3.63 1.29-9.4-3.17-13.04-13.95 1.77-3.01 12.22-9.5 15.57-8.1 0 0 6.58 2.5 7.37 5.25-1.26 4-6.94 14.89-6.72 14.44z" fill="#9f3000" class="B C D"/><path d="M729.76-203.25l.12-14.42m11.79 90.2l2.06 35.194" class="F B C E"/><path d="M467.05-229.54c7.1 6.68 18.25 2.2 20.03 18.51.76 9.12-12.17 27.38 0 43.86 4.31 6.33 15.47 13.18 15.47 13.18 5.83 6.51 7.6 18.09 11.4 27.13 8.03 12 19.1 14.62 27.89 11.66l28.9-13.18c0-.26-14.7-19.78-14.7-19.52 0 .25-16.48 13.94-16.73 13.94-1.78-.26-11.41.76-14.96-11.41-.25-15.55-7.94-24.16-20.28-30.42-6.26-4.74-11.24-12.26-5.83-22.82 3.12-9.63 6.25-25.86-4.82-36.76-7.1-4.73-12.17-8.45-19.78-9.89-10.05 3.8-9.97 2.79-6.59 15.72z" fill="#238700" class="B C D"/><g class="F B C E"><path d="M609.97-365.26c-3.89 7.12-3.53 11.39-2.89 18.51m-16.83 16.52h9.06c2.41-.07 3.45-.98 5.19-2.27 1.16-.66 2.4-1.65 3.56-2.59.96-.69 2.11-1.49 3.23-1.94 1.84 0 3.28.13 4.86.65 1.47.61 2.67 1.49 3.89 2.26 1.21.49 2.3.65 4.2.65 1.98 0 4.05-.09 5.83.32 1.71.12 3.63.49 4.86.97 1.57.99 2.51 2.17 3.56 3.24.06 1.72.63 2.77.65 4.53 0 1.51.17 3.55-.33 4.54 0 1.86-.29 3.18-.64 4.53-1.19 1.12-1.62 1.98-3.24 2.27-1.27.99-3.18.97-5.18.97h-5.18l-3.89-3.24c-.75-1.74-1.24-2.31-2.91-2.91-1.4-.22-3.07-.33-4.86-.33-1.58 0-2.9.11-3.88-.64-.9-.86-2.19-1.3-3.56-1.62-1.47-.42-3.2-.33-4.86-.33h-2.59"/><path d="M598.67-327.32l.32.32c-.73-.73-.47-.38 1.3.33 2.14.49 4.45.9 6.79.97l6.48.32c1.55 0 3.18.13 4.53-.32m1.3-6.8h-.33c1.02 0 .4-.08-.97 1.62-.13 1.85-.53 2.87.33 4.53 1.05.35 2.84 1.14 3.56 1.94 1.04.75.97 1.42.97 3.24l-1.94 3.24-1.3 3.56c-.37 1.48-.63 2.89-.65 4.53v3.24m117.53-63.6c.36.69 6.57 13.09 14.28 5.22 1.14-1.34 1.54-2.31 1.54-4.59 0-1.19-.16-2.58-.45-3.56"/></g><path d="M549.75-120.93c3.74 5.2 10.52 2.52 11.89-1.64-4.65.3-6.43-2.45-8.07-6.65-.99 2.41-4.86 5.3-3.82 8.29z" class="B D I c"/><g class="C F B E"><path d="M769.35-358.63c0 .24 6.58 6.29 16.53 6.29 2.4 0 13.8-2.88 17.44-7.95"/><path d="M783.13-352.8c.15.97.46 4.51.46 6.87-.03 2.49.57 4.58-.37 6.66-1.03 2.65-2.16 3.71-4.67 4.62-2.04.92-2.47.04-4.74.12m-45.44-30.8c0 .15 7.02 16.82 9.33 18.51"/></g><g class="D I c B"><path d="M554.31-123.97c3.73 5.2 10.52 2.52 11.88-1.64-4.65.3-6.42-2.44-8.06-6.65-.99 2.41-4.87 5.3-3.82 8.29z"/><path d="M561.4-127.01c3.73 5.21 10.52 2.53 11.88-1.64-4.65.3-6.42-2.44-8.06-6.65-1 2.41-4.87 5.3-3.82 8.29z"/></g><g class="C F B E"><path d="M688.35-373.86h2.29c7.27-1.23 31.72 3.28 35.96 7.78m-33.67 110.35c-.15-.15.34 2.8.19 2.65.9.9-.14-2.44-.65-4.48-.76-1.82-.91-3.02-.91-5.5v-1.83m-44.33 116.93v.65-.65.65-2.65 13.33c.33 1.61.33 3.4.33 5.18.2 1.38.68 3.02 1.29 4.54.09 1.92.63 3.18 1.3 4.85.13 1.66.7 3.08 1.29 4.54.14 1.66.68 2.53.97 3.88.47 1.56 1.04 2.57 1.62 3.56.42.43.83 2.6 1.22 2.72"/><path d="M627.48-167.06v8.75l.97 6.47c.18 1.85.63 3.43.97 5.18.16 1.73 2.23 7.87 2.92 9.39.76 1.43 1.9 2.92 2.59 3.88 1.29.4 2.35.86 3.88.97h4.54c1.81-.35 2.44-.54 3.23-1.94.44-.87.42-1.48.98-1.94m-25.58 28.17c0-.53-.08-2.12.65-3.24 1.14-1.63 2.06-2.64 3.56-4.21 1.77-1.13 6.17-7.18 19.42-10.68 1.55 0 2.09-.3 3.57-.33m-25.63-10.92c.11.11 7.25 3.84 10.95 4"/></g><path d="M643.94-124.97h-.35.35c-.12 0-.23 0 0 0z" class="B F J"/><g class="C D B"><path d="M640.76-125.32c-1.06-.71-35.39-10.62-34.68-10.62.7 0-12.57 9.03-12.57 9.03l32.74 11.15 13.09-9.56h1.42z" fill="#ffbc00"/><path d="M607.96-136.2c2.17-5.51 1.58-12.77-5.51-17.27-16.18-9.93-43.37-9.09-48.54 2.5-5.59-.75-8.43 3.76-9.26 8.26-14.43 3.92-1.08 20.59 2.5 21.27 4.85 1.65 6.17.44 7.01-1.15 2.7.67 6.4-2.22 7.33-4.21 3.43.63 6.03.57 6.09-2.87 9.82 9.21 23.36 15.58 24.86 3.73l15.52-10.26z" fill="#f7b200"/></g><path d="M544.67-142.96c-.91 6.42 3.4 13.34 10.24 20.02m-1.25-28.03c-.92 6.43.92 17.35 7.76 24.02m2.38-30.92c-6.28 5.28-2.85 21.6 3.99 28.27" class="F B C"/><path d="M580.6-291.29c14.49 19.2-5.78 40.4-23.49 52.63-20.87 16.42-32.15 48.43 4.67 50.39 13.3-.24 27.74-1.42 35.86 8.99 8.13 10.42 8.43 29.65-12.04 41.98-2-1.77-4.99-7.05-7.21-8.66s-3.68.45-5.68-1.32c-.71-6.6 10.09-16.43-.12-18.81-13.22 2.24-59.47 2.43-58.87-41.68 1.01-9.84 6.27-20.87 14.7-32.1 8.44-11.23 31.56-25.15 33.78-31.25 3.56-5.26-2.95-15.51-8.14-16.92-4.25-11.33 14.51-23.42 26.54-3.25z" stroke="#000100" fill="#288800" class="C D H"/><g class="B"><g class="F C"><path d="M548.4-257.32l.5 25.78"/><path d="M534.89-247.06l27.53 4.01m-7.26-20.02l23.27 4.75"/><path d="M530.66-242.57l19.37 11.48m-33.18 12.76l15.14 16.08m-1.16-39.26l2.57 38.02" class="P"/><path d="M520.39-225.58l24.87.5" class="P"/><path d="M494.38-161.36c3.85-3.64 7.87-8.88 10.36-14m-2.57 20.55c5.2-3.22 11.87-5.75 18.49-7.1m-8.94 29.22c4.51-3.76 9.36-7.74 12.68-12.98m-12.5 13.84c7.93-.19 15.98-1.01 23.8-2.45m-9.64 18.04c5.9-2.22 11.29-5.63 15.66-9.04M485-169.32c4.58-3.69 9.16-7.9 12.88-12.27m-16.24.42c4.98-1.34 9.84-3.87 14.07-6.22m-12.33-6.12c4.03-1.56 8.73-2.21 13.09-2.47m-9.34-8.9c4.87-.48 8.14-.19 13.01 1.34m-12.2-8.57c4.03-2.16 8.55-3.57 13.08-2.97m-15.08-2.37l14.02-9.57m-16.5 5.61l11.94-11.84m-15.33 10.2l8.75-14.95m26.16-73.4l-.11 21.3m21.66-17.9c-3.14 6.13-7.54 13.39-13.19 18.81"/><path d="M520.63-312.12c-6.26-.5-12.17 2.89-16.92 6.9"/></g><path d="M553.98-295.86c10.4 3.82 24.2 9.08 22.76 39.62 8.61-9.33 12.55-22.41 1.62-38.91-7.35-7.94-18.11-9.62-24.38-.71z" fill-opacity=".994" fill="#9d4600" class="D H J"/><g class="C F"><path d="M558.67-285.68c.42-5.91 8.69-13.23 13.06-14.84m-9.88 20.19c2.18-7.56 11.61-13.56 15.97-15.17m-15.77 25.89c4.03.06 19.27-8.39 22.75-13.42"/><path d="M563.3-275.25c4.9-3.4 14.1-11.11 18.46-12.73m-5.01 18.9c3.67-2.08 4.93-1.57 8.77-5.53"/><path d="m553.98-295.68c10.46 3.4 23.24 11.11 22.41 39.43"/><path d="M519.17-186.24l14.23-17.25m-12.46 20.8l12.72-.01" class="P"/><path d="m513.85-199.93l17.78 10.13" class="P"/></g><path d="M537.79-201.65c-3.41-.32-5.36-.97-8.32-2.06 1.39 22.91 3.68 24.09 7.3 32.73 10.84 6.87 29.59 5.27 37.52 3.55.86 1.2 5.55 7.02 2.66 8.72-3.11 1.95-4.37 5.73-4.48 11.84 1.83 2.07 3.75.27 5.62 1.6s4.07 6.05 5.8 10.1 23.04-15.84 19.31-30.74c-2.46-13.99-11.92-18.76-11.92-18.76-13.38-6.69-32.18-2.25-39.04-4.81-8.54-1.9-13.91-9.28-14.45-12.17z" fill="#9d4600" class="D J"/><g class="C F"><path d="M575.75-161.22c11.54-5.27 23.75-5.7 27.06-5.22m-72.2-25.39c2.51-1.47 6.2-4.6 10.44-4.53m10.79 29.77c2.05-12.14 7.25-20.33 9.93-22.39m-3 23.34c2.05-12.14 7.73-20.81 10.41-22.86m-2.68 22.07c2.05-12.14 7.25-20.02 9.93-22.07m-4.1 21.12c2.05-12.14 8.83-18.12 11.51-20.18"/><path d="M576.21-163.94c2.05-12.14 12.36-18.88 15.04-20.94m-14.72 22.83c7.03-10.11 18.58-15.02 21.88-15.73m-53.83 9.62c2.05-12.14 7.41-18.76 10.09-20.82m-17.02 18.61c2.05-12.14 8.35-18.29 11.03-20.34m24.98 45.28c5.45-4.29 9.15 9.55 9.42 11.23s1.29 3.39 4 4.96m-53.69-49.49c2.21-6.15 7.09-12.92 9.77-14.97"/></g><path d="M563.26-157.31c-7.07 11.23 1.09 21.15 10.24 17.17-1.05-7.76-3.03-12.69 4.05-20.16-5.02.3-9.53-1.48-14.29 2.99z" class="D I b"/><g class="C F"><path d="m536.59-239.89l3.35 16.5"/><path d="M539.94-224.73l-6.02 20.29m41.58 44.28c12.45-2.42 24.42 0 27.52 1.25"/></g><path d="M574.03-158.17c12.76-.19 23.89 5.03 26.64 7.08" stroke-width="2.689" class="F"/><path d="M574.16-155.8c12.28 2.79 17.78 9.02 19.93 11.65m-20.78-8.82c11.02 6.1 13.5 11.1 14.83 14.23" stroke-width="2.671" class="F"/></g><path d="M391.048-93.953l5.916-1.387 6.416 27.36-5.916 1.387zM440.25-1.505l12.42 14.145 4.63-3.924-11.66-14.652-5.39 4.431zm379.13 60.432l-15.39 10.842 3.41 5.03 15.81-10.032-3.83-5.84zm81.18-67.682L886.84 4.126l4.07 4.506 14.26-12.137-4.61-5.25zm43.52-90.871l-4.99 12.325 2.73 3.534 5.37-11.727-3.11-4.132z" fill="#296526" class="D"/><path d="M537.48-169.7c-6.67-10.98-7.52-22.45-7.85-33.68 3.54 1.69 6.33 2.62 8.35 2.03m-23.72-110.69c-5.49-13.72.85-21.16 7.7-27.68" class="B C F"/><path d="M523.206-343.54c-1.156-1.465-3.735-1.185-5.759.624s-2.728 4.463-1.571 5.928 3.735 1.185 5.759-.624 2.728-4.463 1.571-5.928l-3.665 3.276z" class="D"/><path d="M487.66-239.05c-1.15 0-21.03-2.68-21.03-2.68m12.62 17.21c0-.76-13.01-16.82-13.01-16.82" stroke-width="3.25" class="B F"/></g><g class="D"><path fill="#0b7226" d="M0 0h290.69v496.06H0z"/><path fill="#bc0000" d="M579.09 0h289.02v496.06H579.09z"/></g><defs ><path id="B" d="M540.046 17.458a9.79 9.79 0 0 0-14.75-8.674 9.79 9.79 0 0 0-4.824 8.674 9.79 9.79 0 0 0 14.75 8.674 9.79 9.79 0 0 0 4.824-8.674h-9.787z"/><path id="C" d="m203.69 472.45a16.127 9.0577 0 1 0 -32.26 0 16.127 9.0577 0 1 0 32.26 0h-16.13z"/><path id="D" d="M933.177-102.485c.658-2.877-1.639-6.015-5.132-7.007s-6.857.535-7.515 3.413 1.639 6.015 5.132 7.007 6.857-.535 7.515-3.413l-6.319-1.796z"/><path id="E" d="m619.32 390.34a7.2344 7.2344 0 1 0 -14.47 0 7.2344 7.2344 0 1 0 14.47 0h-7.23z"/><path id="F" d="M720.08-110.5h15.887v4.823H720.08z"/></defs></svg>