<svg xmlns="http://www.w3.org/2000/svg" xmlns:xlink="http://www.w3.org/1999/xlink" width="1024" zoomAndPan="magnify" viewBox="0 0 768 175.5" height="234" preserveAspectRatio="xMidYMid meet" version="1.0"><defs><clipPath id="5773a6d972"><path d="M 19 42.324219 L 171 42.324219 L 171 132.816406 L 19 132.816406 Z M 19 42.324219 " clip-rule="nonzero"/></clipPath></defs><g clip-path="url(#5773a6d972)"><path fill="#38bdf8" d="M 94.894531 42.324219 C 74.820312 42.324219 62.273438 52.378906 57.257812 72.488281 C 64.785156 62.433594 73.566406 58.660156 83.605469 61.175781 C 89.332031 62.609375 93.421875 66.773438 97.953125 71.378906 C 105.335938 78.882812 113.878906 87.570312 132.535156 87.570312 C 152.609375 87.570312 165.15625 77.515625 170.175781 57.402344 C 162.648438 67.460938 153.863281 71.230469 143.828125 68.714844 C 138.101562 67.28125 134.007812 63.117188 129.476562 58.511719 C 122.09375 51.007812 113.554688 42.324219 94.894531 42.324219 Z M 57.257812 87.570312 C 37.183594 87.570312 24.636719 97.625 19.617188 117.734375 C 27.144531 107.679688 35.925781 103.90625 45.964844 106.421875 C 51.691406 107.859375 55.78125 112.019531 60.3125 116.625 C 67.695312 124.128906 76.238281 132.816406 94.894531 132.816406 C 114.96875 132.816406 127.515625 122.761719 132.535156 102.648438 C 125.007812 112.707031 116.222656 116.476562 106.1875 113.960938 C 100.460938 112.527344 96.367188 108.363281 91.835938 103.761719 C 84.457031 96.253906 75.914062 87.570312 57.257812 87.570312 Z M 57.257812 87.570312 " fill-opacity="1" fill-rule="nonzero"/></g><path fill="#ffffff" d="M 245.441406 80.453125 L 232.304688 80.453125 L 232.304688 105.925781 C 232.304688 112.71875 236.753906 112.609375 245.441406 112.1875 L 245.441406 122.480469 C 227.855469 124.605469 220.859375 119.722656 220.859375 105.925781 L 220.859375 80.453125 L 211.113281 80.453125 L 211.113281 69.414062 L 220.859375 69.414062 L 220.859375 55.160156 L 232.300781 51.761719 L 232.300781 69.414062 L 245.441406 69.414062 Z M 295.523438 69.414062 L 306.964844 69.414062 L 306.964844 122.484375 L 295.523438 122.484375 L 295.523438 114.839844 C 291.496094 120.464844 285.246094 123.863281 276.980469 123.863281 C 262.570312 123.863281 250.597656 111.65625 250.597656 95.949219 C 250.597656 80.136719 262.570312 68.039062 276.980469 68.039062 C 285.246094 68.039062 291.496094 71.433594 295.523438 76.953125 Z M 278.78125 112.929688 C 288.316406 112.929688 295.523438 105.820312 295.523438 95.949219 C 295.523438 86.082031 288.316406 78.96875 278.78125 78.96875 C 269.246094 78.96875 262.039062 86.078125 262.039062 95.949219 C 262.039062 105.820312 269.246094 112.929688 278.78125 112.929688 Z M 326.035156 61.453125 C 322.007812 61.453125 318.722656 58.058594 318.722656 54.128906 C 318.726562 53.648438 318.773438 53.171875 318.867188 52.703125 C 318.960938 52.230469 319.101562 51.773438 319.285156 51.328125 C 319.46875 50.886719 319.691406 50.464844 319.960938 50.0625 C 320.226562 49.664062 320.53125 49.296875 320.867188 48.957031 C 321.207031 48.617188 321.578125 48.3125 321.976562 48.042969 C 322.375 47.777344 322.796875 47.550781 323.238281 47.367188 C 323.683594 47.183594 324.136719 47.042969 324.609375 46.949219 C 325.078125 46.855469 325.554688 46.808594 326.035156 46.804688 C 326.515625 46.808594 326.988281 46.855469 327.460938 46.949219 C 327.929688 47.042969 328.386719 47.183594 328.828125 47.367188 C 329.273438 47.550781 329.695312 47.777344 330.09375 48.042969 C 330.492188 48.3125 330.859375 48.617188 331.199219 48.957031 C 331.539062 49.296875 331.839844 49.664062 332.109375 50.0625 C 332.375 50.464844 332.601562 50.886719 332.785156 51.328125 C 332.96875 51.773438 333.105469 52.230469 333.203125 52.703125 C 333.296875 53.171875 333.34375 53.648438 333.34375 54.128906 C 333.34375 58.058594 330.058594 61.453125 326.035156 61.453125 Z M 320.3125 122.480469 L 320.3125 69.414062 L 331.753906 69.414062 L 331.753906 122.484375 Z M 345 122.480469 L 345 45.003906 L 356.441406 45.003906 L 356.441406 122.480469 Z M 430.710938 69.414062 L 442.789062 69.414062 L 426.15625 122.484375 L 414.925781 122.484375 L 403.90625 86.714844 L 392.78125 122.484375 L 381.550781 122.484375 L 364.917969 69.414062 L 376.996094 69.414062 L 387.273438 106.03125 L 398.398438 69.414062 L 409.308594 69.414062 L 420.328125 106.03125 Z M 456.988281 61.453125 C 452.960938 61.453125 449.675781 58.058594 449.675781 54.128906 C 449.675781 53.648438 449.722656 53.171875 449.820312 52.703125 C 449.914062 52.230469 450.050781 51.773438 450.234375 51.328125 C 450.421875 50.886719 450.644531 50.464844 450.914062 50.0625 C 451.179688 49.664062 451.480469 49.296875 451.820312 48.957031 C 452.160156 48.617188 452.53125 48.3125 452.929688 48.042969 C 453.328125 47.777344 453.746094 47.550781 454.191406 47.367188 C 454.632812 47.183594 455.089844 47.042969 455.5625 46.949219 C 456.03125 46.855469 456.507812 46.808594 456.988281 46.804688 C 457.464844 46.808594 457.941406 46.855469 458.410156 46.949219 C 458.882812 47.042969 459.339844 47.183594 459.78125 47.367188 C 460.226562 47.550781 460.644531 47.777344 461.042969 48.042969 C 461.441406 48.3125 461.8125 48.617188 462.152344 48.957031 C 462.492188 49.296875 462.792969 49.664062 463.058594 50.0625 C 463.328125 50.464844 463.550781 50.886719 463.738281 51.328125 C 463.921875 51.773438 464.058594 52.230469 464.152344 52.703125 C 464.25 53.171875 464.296875 53.648438 464.296875 54.128906 C 464.296875 58.058594 461.011719 61.453125 456.988281 61.453125 Z M 451.265625 122.480469 L 451.265625 69.414062 L 462.707031 69.414062 L 462.707031 122.484375 Z M 503.816406 68.03125 C 515.679688 68.03125 524.15625 76.101562 524.15625 89.898438 L 524.15625 122.480469 L 512.714844 122.480469 L 512.714844 91.066406 C 512.714844 83 508.050781 78.753906 500.847656 78.753906 C 493.328125 78.753906 487.394531 83.210938 487.394531 94.035156 L 487.394531 122.484375 L 475.953125 122.484375 L 475.953125 69.414062 L 487.394531 69.414062 L 487.394531 76.207031 C 490.890625 70.6875 496.609375 68.035156 503.816406 68.035156 Z M 578.402344 48.1875 L 589.84375 48.1875 L 589.84375 122.484375 L 578.402344 122.484375 L 578.402344 114.839844 C 574.375 120.464844 568.125 123.863281 559.863281 123.863281 C 545.453125 123.863281 533.480469 111.65625 533.480469 95.949219 C 533.480469 80.136719 545.453125 68.039062 559.863281 68.039062 C 568.125 68.039062 574.378906 71.433594 578.402344 76.953125 Z M 561.664062 112.929688 C 571.199219 112.929688 578.402344 105.820312 578.402344 95.949219 C 578.402344 86.082031 571.199219 78.96875 561.664062 78.96875 C 552.128906 78.96875 544.921875 86.078125 544.921875 95.949219 C 544.921875 105.820312 552.125 112.929688 561.664062 112.929688 Z M 628.199219 123.863281 C 612.199219 123.863281 600.226562 111.65625 600.226562 95.949219 C 600.226562 80.136719 612.199219 68.039062 628.199219 68.039062 C 638.582031 68.039062 647.585938 73.449219 651.824219 81.726562 L 641.972656 87.457031 C 639.640625 82.472656 634.449219 79.285156 628.09375 79.285156 C 618.769531 79.285156 611.671875 86.398438 611.671875 95.949219 C 611.671875 105.503906 618.769531 112.613281 628.09375 112.613281 C 634.449219 112.613281 639.640625 109.320312 642.183594 104.441406 L 652.035156 110.0625 C 647.585938 118.449219 638.582031 123.863281 628.199219 123.863281 Z M 670.894531 84.0625 C 670.894531 93.71875 699.394531 87.882812 699.394531 107.519531 C 699.394531 118.132812 690.175781 123.863281 678.734375 123.863281 C 668.140625 123.863281 660.511719 119.085938 657.121094 111.445312 L 666.976562 105.714844 C 668.671875 110.488281 672.910156 113.355469 678.734375 113.355469 C 683.820312 113.355469 687.742188 111.660156 687.742188 107.410156 C 687.742188 97.964844 659.242188 103.273438 659.242188 84.273438 C 659.242188 74.296875 667.820312 68.039062 678.628906 68.039062 C 687.316406 68.039062 694.523438 72.070312 698.230469 79.074219 L 688.589844 84.488281 C 686.683594 80.347656 682.972656 78.4375 678.628906 78.4375 C 674.496094 78.4375 670.894531 80.242188 670.894531 84.0625 Z M 719.738281 84.0625 C 719.738281 93.71875 748.238281 87.882812 748.238281 107.519531 C 748.238281 118.132812 739.019531 123.863281 727.578125 123.863281 C 716.984375 123.863281 709.355469 119.085938 705.964844 111.445312 L 715.816406 105.714844 C 717.511719 110.488281 721.75 113.355469 727.578125 113.355469 C 732.664062 113.355469 736.582031 111.660156 736.582031 107.410156 C 736.582031 97.964844 708.082031 103.273438 708.082031 84.273438 C 708.082031 74.296875 716.664062 68.039062 727.472656 68.039062 C 736.160156 68.039062 743.363281 72.070312 747.074219 79.074219 L 737.429688 84.488281 C 735.523438 80.347656 731.816406 78.4375 727.472656 78.4375 C 723.339844 78.4375 719.738281 80.242188 719.738281 84.0625 Z M 719.738281 84.0625 " fill-opacity="1" fill-rule="nonzero"/></svg>